<mxfile host="65bd71144e">
    <diagram id="DQU-kqcON3Z1oUUEVBNg" name="Page-1">
        <mxGraphModel dx="3158" dy="2025" grid="1" gridSize="10" guides="1" tooltips="1" connect="1" arrows="1" fold="1" page="1" pageScale="1" pageWidth="850" pageHeight="1100" math="0" shadow="0">
            <root>
                <mxCell id="0"/>
                <mxCell id="1" parent="0"/>
                <mxCell id="66" value="" style="edgeStyle=none;html=1;exitX=0.5;exitY=0;exitDx=0;exitDy=0;" edge="1" parent="1" source="24" target="65">
                    <mxGeometry relative="1" as="geometry"/>
                </mxCell>
                <mxCell id="24" value="1. Problem" style="swimlane;whiteSpace=wrap;html=1;" parent="1" vertex="1">
                    <mxGeometry x="-1640" y="-530" width="730" height="485" as="geometry"/>
                </mxCell>
                <mxCell id="62" value="&lt;div style=&quot;color: rgb(218, 218, 218); background-color: rgb(30, 30, 30); font-family: &amp;quot;Droid Sans Mono&amp;quot;, &amp;quot;monospace&amp;quot;, monospace; font-size: 14px; line-height: 19px;&quot;&gt;&lt;div&gt;&lt;span style=&quot;color: #57a64a;&quot;&gt;# OPTIMIZATION PARAMETERS&lt;/span&gt;&lt;/div&gt;&lt;div&gt;&lt;span style=&quot;color: #9cdcfe;&quot;&gt;ns&lt;/span&gt; &lt;span style=&quot;color: #b4b4b4;&quot;&gt;=&lt;/span&gt; &lt;span style=&quot;color: #b5cea8;&quot;&gt;20&lt;/span&gt;  &lt;span style=&quot;color: #57a64a;&quot;&gt;# number of shooting nodes&lt;/span&gt;&lt;/div&gt;&lt;div&gt;&lt;span style=&quot;color: #9cdcfe;&quot;&gt;dt&lt;/span&gt; &lt;span style=&quot;color: #b4b4b4;&quot;&gt;=&lt;/span&gt; &lt;span style=&quot;color: #b5cea8;&quot;&gt;0.1&lt;/span&gt;&lt;/div&gt;&lt;div&gt;&lt;div style=&quot;line-height: 19px;&quot;&gt;&lt;div&gt;&lt;span style=&quot;color: #57a64a;&quot;&gt;# Create horizon problem&lt;/span&gt;&lt;/div&gt;&lt;div&gt;&lt;span style=&quot;color: #9cdcfe;&quot;&gt;prb&lt;/span&gt; &lt;span style=&quot;color: #b4b4b4;&quot;&gt;=&lt;/span&gt; &lt;span style=&quot;color: #c8c8c8;&quot;&gt;problem&lt;/span&gt;&lt;span style=&quot;color: #b4b4b4;&quot;&gt;.&lt;/span&gt;&lt;span style=&quot;color: #4ec9b0;&quot;&gt;Problem&lt;/span&gt;&lt;span style=&quot;color: #b4b4b4;&quot;&gt;(&lt;/span&gt;&lt;span style=&quot;color: #9cdcfe;&quot;&gt;ns&lt;/span&gt;&lt;span style=&quot;color: #b4b4b4;&quot;&gt;)&lt;/span&gt;&lt;/div&gt;&lt;div&gt;&lt;div style=&quot;line-height: 19px;&quot;&gt;&lt;div&gt;&lt;span style=&quot;color: #57a64a;&quot;&gt;# Create problem STATE variables&lt;/span&gt;&lt;/div&gt;&lt;div&gt;&lt;span style=&quot;color: #9cdcfe;&quot;&gt;q&lt;/span&gt; &lt;span style=&quot;color: #b4b4b4;&quot;&gt;=&lt;/span&gt; &lt;span style=&quot;color: #9cdcfe;&quot;&gt;prb&lt;/span&gt;&lt;span style=&quot;color: #b4b4b4;&quot;&gt;.&lt;/span&gt;&lt;span style=&quot;color: #dcdcaa;&quot;&gt;createStateVariable&lt;/span&gt;&lt;span style=&quot;color: #b4b4b4;&quot;&gt;(&lt;/span&gt;&lt;span style=&quot;color: #e8c9bb;&quot;&gt;&quot;&lt;/span&gt;&lt;span style=&quot;color: #ce9178;&quot;&gt;q&lt;/span&gt;&lt;span style=&quot;color: #e8c9bb;&quot;&gt;&quot;&lt;/span&gt;&lt;span style=&quot;color: #b4b4b4;&quot;&gt;,&lt;/span&gt; &lt;span style=&quot;color: #9cdcfe;&quot;&gt;nq&lt;/span&gt;&lt;span style=&quot;color: #b4b4b4;&quot;&gt;)&lt;/span&gt;&lt;/div&gt;&lt;div&gt;&lt;span style=&quot;color: #9cdcfe;&quot;&gt;qdot&lt;/span&gt; &lt;span style=&quot;color: #b4b4b4;&quot;&gt;=&lt;/span&gt; &lt;span style=&quot;color: #9cdcfe;&quot;&gt;prb&lt;/span&gt;&lt;span style=&quot;color: #b4b4b4;&quot;&gt;.&lt;/span&gt;&lt;span style=&quot;color: #dcdcaa;&quot;&gt;createStateVariable&lt;/span&gt;&lt;span style=&quot;color: #b4b4b4;&quot;&gt;(&lt;/span&gt;&lt;span style=&quot;color: #e8c9bb;&quot;&gt;&quot;&lt;/span&gt;&lt;span style=&quot;color: #ce9178;&quot;&gt;qdot&lt;/span&gt;&lt;span style=&quot;color: #e8c9bb;&quot;&gt;&quot;&lt;/span&gt;&lt;span style=&quot;color: #b4b4b4;&quot;&gt;,&lt;/span&gt; &lt;span style=&quot;color: #9cdcfe;&quot;&gt;nv&lt;/span&gt;&lt;span style=&quot;color: #b4b4b4;&quot;&gt;)&lt;/span&gt;&lt;/div&gt;&lt;br&gt;&lt;div&gt;&lt;span style=&quot;color: #57a64a;&quot;&gt;# Create problem CONTROL variables&lt;/span&gt;&lt;/div&gt;&lt;div&gt;&lt;span style=&quot;color: #9cdcfe;&quot;&gt;u&lt;/span&gt; &lt;span style=&quot;color: #b4b4b4;&quot;&gt;=&lt;/span&gt; &lt;span style=&quot;color: #9cdcfe;&quot;&gt;prb&lt;/span&gt;&lt;span style=&quot;color: #b4b4b4;&quot;&gt;.&lt;/span&gt;&lt;span style=&quot;color: #dcdcaa;&quot;&gt;createInputVariable&lt;/span&gt;&lt;span style=&quot;color: #b4b4b4;&quot;&gt;(&lt;/span&gt;&lt;span style=&quot;color: #e8c9bb;&quot;&gt;&quot;&lt;/span&gt;&lt;span style=&quot;color: #ce9178;&quot;&gt;u&lt;/span&gt;&lt;span style=&quot;color: #e8c9bb;&quot;&gt;&quot;&lt;/span&gt;&lt;span style=&quot;color: #b4b4b4;&quot;&gt;,&lt;/span&gt; &lt;span style=&quot;color: #b5cea8;&quot;&gt;1&lt;/span&gt;&lt;span style=&quot;color: #b4b4b4;&quot;&gt;)&lt;/span&gt;&lt;/div&gt;&lt;div&gt;&lt;span style=&quot;color: #9cdcfe;&quot;&gt;tau&lt;/span&gt; &lt;span style=&quot;color: #b4b4b4;&quot;&gt;=&lt;/span&gt; &lt;span style=&quot;color: #c8c8c8;&quot;&gt;cs&lt;/span&gt;&lt;span style=&quot;color: #b4b4b4;&quot;&gt;.&lt;/span&gt;&lt;span style=&quot;color: #dcdcaa;&quot;&gt;vertcat&lt;/span&gt;&lt;span style=&quot;color: #b4b4b4;&quot;&gt;(&lt;/span&gt;&lt;span style=&quot;color: #9cdcfe;&quot;&gt;u&lt;/span&gt;&lt;span style=&quot;color: #b4b4b4;&quot;&gt;,&lt;/span&gt; &lt;span style=&quot;color: #b5cea8;&quot;&gt;0&lt;/span&gt;&lt;span style=&quot;color: #b4b4b4;&quot;&gt;)&lt;/span&gt;&lt;/div&gt;&lt;div&gt;&lt;div style=&quot;line-height: 19px;&quot;&gt;&lt;div&gt;&lt;span style=&quot;color: #57a64a;&quot;&gt;# Create dynamics&lt;/span&gt;&lt;/div&gt;&lt;div&gt;&lt;span style=&quot;color: #9cdcfe;&quot;&gt;fd&lt;/span&gt; &lt;span style=&quot;color: #b4b4b4;&quot;&gt;=&lt;/span&gt; &lt;span style=&quot;color: #9cdcfe;&quot;&gt;kindyn&lt;/span&gt;&lt;span style=&quot;color: #b4b4b4;&quot;&gt;.&lt;/span&gt;aba&lt;span style=&quot;color: #b4b4b4;&quot;&gt;()&lt;/span&gt;  &lt;span style=&quot;color: #57a64a;&quot;&gt;# this is the forward dynamics function&lt;/span&gt;&lt;/div&gt;&lt;div&gt;&lt;span style=&quot;color: #9cdcfe;&quot;&gt;x&lt;/span&gt; &lt;span style=&quot;color: #b4b4b4;&quot;&gt;=&lt;/span&gt; &lt;span style=&quot;color: #c8c8c8;&quot;&gt;cs&lt;/span&gt;&lt;span style=&quot;color: #b4b4b4;&quot;&gt;.&lt;/span&gt;&lt;span style=&quot;color: #dcdcaa;&quot;&gt;vertcat&lt;/span&gt;&lt;span style=&quot;color: #b4b4b4;&quot;&gt;(&lt;/span&gt;&lt;span style=&quot;color: #9cdcfe;&quot;&gt;q&lt;/span&gt;&lt;span style=&quot;color: #b4b4b4;&quot;&gt;,&lt;/span&gt; &lt;span style=&quot;color: #9cdcfe;&quot;&gt;qdot&lt;/span&gt;&lt;span style=&quot;color: #b4b4b4;&quot;&gt;)&lt;/span&gt;&lt;/div&gt;&lt;div&gt;&lt;span style=&quot;color: #9cdcfe;&quot;&gt;xdot&lt;/span&gt; &lt;span style=&quot;color: #b4b4b4;&quot;&gt;=&lt;/span&gt; &lt;span style=&quot;color: #c8c8c8;&quot;&gt;cs&lt;/span&gt;&lt;span style=&quot;color: #b4b4b4;&quot;&gt;.&lt;/span&gt;&lt;span style=&quot;color: #dcdcaa;&quot;&gt;vertcat&lt;/span&gt;&lt;span style=&quot;color: #b4b4b4;&quot;&gt;(&lt;/span&gt;&lt;span style=&quot;color: #9cdcfe;&quot;&gt;qdot&lt;/span&gt;&lt;span style=&quot;color: #b4b4b4;&quot;&gt;,&lt;/span&gt; &lt;span style=&quot;color: #9cdcfe;&quot;&gt;fd&lt;/span&gt;&lt;span style=&quot;color: #b4b4b4;&quot;&gt;(&lt;/span&gt;&lt;span style=&quot;color: #9a9a9a;&quot;&gt;q&lt;/span&gt;&lt;span style=&quot;color: #b4b4b4;&quot;&gt;=&lt;/span&gt;&lt;span style=&quot;color: #9cdcfe;&quot;&gt;q&lt;/span&gt;&lt;span style=&quot;color: #b4b4b4;&quot;&gt;,&lt;/span&gt; &lt;span style=&quot;color: #9a9a9a;&quot;&gt;v&lt;/span&gt;&lt;span style=&quot;color: #b4b4b4;&quot;&gt;=&lt;/span&gt;&lt;span style=&quot;color: #9cdcfe;&quot;&gt;qdot&lt;/span&gt;&lt;span style=&quot;color: #b4b4b4;&quot;&gt;,&lt;/span&gt; &lt;span style=&quot;color: #9a9a9a;&quot;&gt;tau&lt;/span&gt;&lt;span style=&quot;color: #b4b4b4;&quot;&gt;=&lt;/span&gt;&lt;span style=&quot;color: #9cdcfe;&quot;&gt;tau&lt;/span&gt;&lt;span style=&quot;color: #b4b4b4;&quot;&gt;)[&lt;/span&gt;&lt;span style=&quot;color: #e8c9bb;&quot;&gt;'&lt;/span&gt;&lt;span style=&quot;color: #ce9178;&quot;&gt;a&lt;/span&gt;&lt;span style=&quot;color: #e8c9bb;&quot;&gt;'&lt;/span&gt;&lt;span style=&quot;color: #b4b4b4;&quot;&gt;])&lt;/span&gt;&lt;/div&gt;&lt;div&gt;&lt;span style=&quot;color: #9cdcfe;&quot;&gt;prb&lt;/span&gt;&lt;span style=&quot;color: #b4b4b4;&quot;&gt;.&lt;/span&gt;&lt;span style=&quot;color: #dcdcaa;&quot;&gt;setDynamics&lt;/span&gt;&lt;span style=&quot;color: #b4b4b4;&quot;&gt;(&lt;/span&gt;&lt;span style=&quot;color: #9cdcfe;&quot;&gt;xdot&lt;/span&gt;&lt;span style=&quot;color: #b4b4b4;&quot;&gt;)&lt;/span&gt;&lt;/div&gt;&lt;div&gt;&lt;span style=&quot;color: #9cdcfe;&quot;&gt;prb&lt;/span&gt;&lt;span style=&quot;color: #b4b4b4;&quot;&gt;.&lt;/span&gt;&lt;span style=&quot;color: #dcdcaa;&quot;&gt;setDt&lt;/span&gt;&lt;span style=&quot;color: #b4b4b4;&quot;&gt;(&lt;/span&gt;&lt;span style=&quot;color: #9cdcfe;&quot;&gt;dt&lt;/span&gt;&lt;span style=&quot;color: #b4b4b4;&quot;&gt;)&lt;/span&gt;&lt;/div&gt;&lt;/div&gt;&lt;/div&gt;&lt;/div&gt;&lt;/div&gt;&lt;/div&gt;&lt;/div&gt;&lt;/div&gt;" style="text;html=1;strokeColor=none;fillColor=none;align=center;verticalAlign=middle;whiteSpace=wrap;rounded=0;" parent="24" vertex="1">
                    <mxGeometry x="80" y="35" width="610" height="460" as="geometry"/>
                </mxCell>
                <mxCell id="56" value="3. TranscriptionMethod" style="swimlane;whiteSpace=wrap;html=1;startSize=23;" parent="1" vertex="1">
                    <mxGeometry x="-1640" y="50" width="730" height="230" as="geometry"/>
                </mxCell>
                <mxCell id="63" value="&lt;div style=&quot;color: rgb(218, 218, 218); background-color: rgb(30, 30, 30); font-family: &amp;quot;Droid Sans Mono&amp;quot;, &amp;quot;monospace&amp;quot;, monospace; font-size: 14px; line-height: 19px;&quot;&gt;&lt;div&gt;&lt;span style=&quot;color: #57a64a;&quot;&gt;# Formulate discrete time dynamics (for multiple shooting)&lt;/span&gt;&lt;/div&gt;&lt;div&gt;&lt;span style=&quot;color: #9cdcfe;&quot;&gt;tf&lt;/span&gt; &lt;span style=&quot;color: #b4b4b4;&quot;&gt;=&lt;/span&gt; &lt;span style=&quot;color: #9cdcfe;&quot;&gt;ns&lt;/span&gt; &lt;span style=&quot;color: #b4b4b4;&quot;&gt;*&lt;/span&gt; &lt;span style=&quot;color: #9cdcfe;&quot;&gt;dt&lt;/span&gt;  &lt;span style=&quot;color: #57a64a;&quot;&gt;# [s]&lt;/span&gt;&lt;/div&gt;&lt;div&gt;&lt;span style=&quot;color: #c8c8c8;&quot;&gt;L&lt;/span&gt; &lt;span style=&quot;color: #b4b4b4;&quot;&gt;=&lt;/span&gt; &lt;span style=&quot;color: #b5cea8;&quot;&gt;0.5&lt;/span&gt; &lt;span style=&quot;color: #b4b4b4;&quot;&gt;*&lt;/span&gt; &lt;span style=&quot;color: #c8c8c8;&quot;&gt;cs&lt;/span&gt;&lt;span style=&quot;color: #b4b4b4;&quot;&gt;.&lt;/span&gt;&lt;span style=&quot;color: #dcdcaa;&quot;&gt;dot&lt;/span&gt;&lt;span style=&quot;color: #b4b4b4;&quot;&gt;(&lt;/span&gt;&lt;span style=&quot;color: #9cdcfe;&quot;&gt;u&lt;/span&gt;&lt;span style=&quot;color: #b4b4b4;&quot;&gt;,&lt;/span&gt; &lt;span style=&quot;color: #9cdcfe;&quot;&gt;u&lt;/span&gt;&lt;span style=&quot;color: #b4b4b4;&quot;&gt;)&lt;/span&gt;  &lt;span style=&quot;color: #57a64a;&quot;&gt;# Objective term&lt;/span&gt;&lt;/div&gt;&lt;div&gt;&lt;span style=&quot;color: #9cdcfe;&quot;&gt;dae&lt;/span&gt; &lt;span style=&quot;color: #b4b4b4;&quot;&gt;=&lt;/span&gt; &lt;span style=&quot;color: #b4b4b4;&quot;&gt;{&lt;/span&gt;&lt;span style=&quot;color: #e8c9bb;&quot;&gt;'&lt;/span&gt;&lt;span style=&quot;color: #ce9178;&quot;&gt;x&lt;/span&gt;&lt;span style=&quot;color: #e8c9bb;&quot;&gt;'&lt;/span&gt;&lt;span style=&quot;color: #b4b4b4;&quot;&gt;:&lt;/span&gt; &lt;span style=&quot;color: #9cdcfe;&quot;&gt;x&lt;/span&gt;&lt;span style=&quot;color: #b4b4b4;&quot;&gt;,&lt;/span&gt; &lt;span style=&quot;color: #e8c9bb;&quot;&gt;'&lt;/span&gt;&lt;span style=&quot;color: #ce9178;&quot;&gt;p&lt;/span&gt;&lt;span style=&quot;color: #e8c9bb;&quot;&gt;'&lt;/span&gt;&lt;span style=&quot;color: #b4b4b4;&quot;&gt;:&lt;/span&gt; &lt;span style=&quot;color: #9cdcfe;&quot;&gt;u&lt;/span&gt;&lt;span style=&quot;color: #b4b4b4;&quot;&gt;,&lt;/span&gt; &lt;span style=&quot;color: #e8c9bb;&quot;&gt;'&lt;/span&gt;&lt;span style=&quot;color: #ce9178;&quot;&gt;ode&lt;/span&gt;&lt;span style=&quot;color: #e8c9bb;&quot;&gt;'&lt;/span&gt;&lt;span style=&quot;color: #b4b4b4;&quot;&gt;:&lt;/span&gt; &lt;span style=&quot;color: #9cdcfe;&quot;&gt;xdot&lt;/span&gt;&lt;span style=&quot;color: #b4b4b4;&quot;&gt;,&lt;/span&gt; &lt;span style=&quot;color: #e8c9bb;&quot;&gt;'&lt;/span&gt;&lt;span style=&quot;color: #ce9178;&quot;&gt;quad&lt;/span&gt;&lt;span style=&quot;color: #e8c9bb;&quot;&gt;'&lt;/span&gt;&lt;span style=&quot;color: #b4b4b4;&quot;&gt;:&lt;/span&gt; &lt;span style=&quot;color: #c8c8c8;&quot;&gt;L&lt;/span&gt;&lt;span style=&quot;color: #b4b4b4;&quot;&gt;}&lt;/span&gt;&lt;/div&gt;&lt;div&gt;&lt;span style=&quot;color: #9cdcfe;&quot;&gt;F_integrator&lt;/span&gt; &lt;span style=&quot;color: #b4b4b4;&quot;&gt;=&lt;/span&gt; &lt;span style=&quot;color: #c8c8c8;&quot;&gt;integrators&lt;/span&gt;&lt;span style=&quot;color: #b4b4b4;&quot;&gt;.&lt;/span&gt;&lt;span style=&quot;color: #dcdcaa;&quot;&gt;EULER&lt;/span&gt;&lt;span style=&quot;color: #b4b4b4;&quot;&gt;(&lt;/span&gt;&lt;span style=&quot;color: #9cdcfe;&quot;&gt;dae&lt;/span&gt;&lt;span style=&quot;color: #b4b4b4;&quot;&gt;)&lt;/span&gt;&lt;/div&gt;&lt;/div&gt;" style="text;html=1;strokeColor=none;fillColor=none;align=center;verticalAlign=middle;whiteSpace=wrap;rounded=0;" parent="56" vertex="1">
                    <mxGeometry x="55" y="50" width="635" height="150" as="geometry"/>
                </mxCell>
                <mxCell id="68" style="edgeStyle=none;html=1;exitX=0.5;exitY=0;exitDx=0;exitDy=0;entryX=1;entryY=1;entryDx=0;entryDy=0;" edge="1" parent="1" source="57" target="65">
                    <mxGeometry relative="1" as="geometry"/>
                </mxCell>
                <mxCell id="57" value="2. ModelParser" style="swimlane;whiteSpace=wrap;html=1;" parent="1" vertex="1">
                    <mxGeometry x="-785" y="-430" width="360" height="140" as="geometry"/>
                </mxCell>
                <mxCell id="59" value="&lt;div style=&quot;color: rgb(218, 218, 218); background-color: rgb(30, 30, 30); font-family: &amp;quot;Droid Sans Mono&amp;quot;, &amp;quot;monospace&amp;quot;, monospace; font-size: 14px; line-height: 19px;&quot;&gt;&lt;span style=&quot;color: #9cdcfe;&quot;&gt;kindyn&lt;/span&gt;&lt;span style=&quot;color: #b4b4b4;&quot;&gt;=&lt;/span&gt;&lt;span style=&quot;color: #c8c8c8;&quot;&gt;cas_kin_dyn&lt;/span&gt;&lt;span style=&quot;color: #b4b4b4;&quot;&gt;.&lt;/span&gt;CasadiKinDyn&lt;span style=&quot;color: #b4b4b4;&quot;&gt;(&lt;/span&gt;&lt;span style=&quot;color: #9cdcfe;&quot;&gt;urdf&lt;/span&gt;&lt;span style=&quot;color: #b4b4b4;&quot;&gt;)&lt;/span&gt;&lt;/div&gt;" style="text;html=1;strokeColor=none;fillColor=none;align=center;verticalAlign=middle;whiteSpace=wrap;rounded=0;" parent="57" vertex="1">
                    <mxGeometry x="30" y="55" width="310" height="30" as="geometry"/>
                </mxCell>
                <mxCell id="58" value="4. Solver" style="swimlane;whiteSpace=wrap;html=1;startSize=23;" parent="1" vertex="1">
                    <mxGeometry x="-740" y="120" width="240" height="110" as="geometry"/>
                </mxCell>
                <mxCell id="64" value="" style="endArrow=classic;html=1;" edge="1" parent="1" source="62">
                    <mxGeometry width="50" height="50" relative="1" as="geometry">
                        <mxPoint x="-1000" y="-360" as="sourcePoint"/>
                        <mxPoint x="-950" y="-410" as="targetPoint"/>
                    </mxGeometry>
                </mxCell>
                <mxCell id="65" value="" style="ellipse;whiteSpace=wrap;html=1;fontStyle=1;startSize=23;" vertex="1" parent="1">
                    <mxGeometry x="-970" y="-890" width="250" height="240" as="geometry"/>
                </mxCell>
                <mxCell id="69" value="&lt;div style=&quot;color: rgb(218, 218, 218); background-color: rgb(30, 30, 30); font-family: &amp;quot;Droid Sans Mono&amp;quot;, &amp;quot;monospace&amp;quot;, monospace; font-size: 14px; line-height: 19px;&quot;&gt;&lt;span style=&quot;color: #9cdcfe;&quot;&gt;ti&lt;/span&gt; &lt;span style=&quot;color: #b4b4b4;&quot;&gt;=&lt;/span&gt; &lt;span style=&quot;color: #4ec9b0;&quot;&gt;TaskInterface&lt;/span&gt;&lt;span style=&quot;color: #b4b4b4;&quot;&gt;(&lt;/span&gt;&lt;span style=&quot;color: #9a9a9a;&quot;&gt;prb&lt;/span&gt;&lt;span style=&quot;color: #b4b4b4;&quot;&gt;=&lt;/span&gt;&lt;span style=&quot;color: #9cdcfe;&quot;&gt;prb&lt;/span&gt;&lt;span style=&quot;color: #b4b4b4;&quot;&gt;,&lt;/span&gt; &lt;span style=&quot;color: #9a9a9a;&quot;&gt;model&lt;/span&gt;&lt;span style=&quot;color: #b4b4b4;&quot;&gt;=&lt;/span&gt;&lt;span style=&quot;color: #9cdcfe;&quot;&gt;model&lt;/span&gt;&lt;span style=&quot;color: #b4b4b4;&quot;&gt;)&lt;/span&gt;&lt;/div&gt;" style="text;html=1;strokeColor=none;fillColor=none;align=center;verticalAlign=middle;whiteSpace=wrap;rounded=0;" vertex="1" parent="1">
                    <mxGeometry x="-960" y="-795" width="232.5" height="60" as="geometry"/>
                </mxCell>
            </root>
        </mxGraphModel>
    </diagram>
</mxfile>